<svg xmlns="http://www.w3.org/2000/svg" width="128" height="128" viewBox="0 0 128 128" role="img" aria-label="Logo">
  <defs>
    <linearGradient id="g" x1="0" y1="0" x2="1" y2="1">
      <stop offset="0" stop-color="#8B5CF6"/>
      <stop offset="1" stop-color="#22D3EE"/>
    </linearGradient>
  </defs>
  <rect x="8" y="8" width="112" height="112" rx="28" fill="url(#g)"/>
  <path d="M44 86V42h20.5c7.4 0 13.1 1.7 17.1 5.1 4 3.4 6 8.1 6 14.2 0 6.2-2 10.9-6 14.3-4 3.4-9.7 5.1-17.1 5.1H58.2V86H44Zm14.2-17h6.1c3.6 0 6.4-.7 8.2-2.1 1.9-1.4 2.8-3.3 2.8-5.8 0-2.4-.9-4.3-2.8-5.7-1.9-1.4-4.6-2.1-8.2-2.1h-6.1V69Z" fill="#07070F" opacity="0.9"/>
</svg>
